<svg width="505" height="505" viewBox="0 0 505 505" fill="none" xmlns="http://www.w3.org/2000/svg">
<g clip-path="url(#clip0_1_69)">
<path d="M252.5 505C391.952 505 505 391.952 505 252.5C505 113.048 391.952 0 252.5 0C113.048 0 0 113.048 0 252.5C0 391.952 113.048 505 252.5 505Z" fill="none"/>
<path d="M105.941 342.347C105.842 340.125 105.773 337.898 105.773 335.653C105.773 254.471 171.817 188.42 253.006 188.42C334.194 188.42 400.239 254.465 400.239 335.653C400.239 337.898 400.169 340.125 400.071 342.347H426.843C426.913 340.119 427 337.898 427 335.653C427 239.553 349.1 161.653 253 161.653C156.9 161.653 79 239.553 79 335.653C79 337.898 79.087 340.119 79.1682 342.347H105.941Z" fill="#E64C3C"/>
<path d="M132.876 342.347C132.754 340.119 132.54 337.915 132.54 335.653C132.54 269.232 186.578 215.193 253 215.193C319.422 215.193 373.46 269.238 373.46 335.653C373.46 337.91 373.246 340.119 373.124 342.347H400.065C400.163 340.125 400.233 337.898 400.233 335.653C400.233 254.471 334.188 188.42 253 188.42C171.812 188.42 105.767 254.471 105.767 335.653C105.767 337.898 105.837 340.125 105.935 342.347H132.876Z" fill="#F0C419"/>
<path d="M159.649 342.347C159.492 340.125 159.313 337.915 159.313 335.653C159.313 283.993 201.339 241.96 253.006 241.96C304.672 241.96 346.699 283.987 346.699 335.653C346.699 337.91 346.519 340.125 346.363 342.347H373.13C373.251 340.119 373.466 337.915 373.466 335.653C373.466 269.232 319.427 215.193 253.006 215.193C186.584 215.193 132.54 269.232 132.54 335.653C132.54 337.91 132.754 340.119 132.876 342.347H159.649Z" fill="#71C285"/>
<path d="M186.416 342.347C186.196 340.143 186.08 337.915 186.08 335.653C186.08 298.754 216.1 268.733 253 268.733C289.9 268.733 319.92 298.76 319.92 335.653C319.92 337.91 319.799 340.143 319.584 342.347H346.351C346.508 340.125 346.687 337.915 346.687 335.653C346.687 283.993 304.661 241.96 252.994 241.96C201.328 241.96 159.301 283.987 159.301 335.653C159.301 337.91 159.481 340.125 159.637 342.347H186.416Z" fill="#0096E6"/>
<path d="M213.45 342.347C213.079 340.166 212.847 337.939 212.847 335.653C212.847 313.509 230.856 295.5 253 295.5C275.144 295.5 293.153 313.509 293.153 335.653C293.153 337.939 292.916 340.166 292.55 342.347H319.584C319.804 340.143 319.92 337.915 319.92 335.653C319.92 298.754 289.9 268.733 253 268.733C216.1 268.733 186.08 298.76 186.08 335.653C186.08 337.91 186.201 340.143 186.416 342.347H213.45Z" fill="#546A79"/>
</g>
<defs>
<clipPath id="clip0_1_69">
<rect width="505" height="505" fill="white"/>
</clipPath>
</defs>
</svg>
