<svg width="505" height="505" viewBox="0 0 505 505" fill="none" xmlns="http://www.w3.org/2000/svg">
<g clip-path="url(#clip0_1_44)">
<path d="M252.5 505C391.952 505 505 391.952 505 252.5C505 113.048 391.952 0 252.5 0C113.048 0 0 113.048 0 252.5C0 391.952 113.048 505 252.5 505Z" fill="#F0C419"/>
<path d="M138.8 198.3V402.4C138.8 408.1 143.4 412.7 149.1 412.7H355.8C361.5 412.7 366.1 408.1 366.1 402.4V198.3H138.8Z" fill="#FF7058"/>
<path d="M363.7 101.1L121.9 144.9C119.8 145.3 118.4 147.3 118.8 149.3L125.3 185C125.7 187.1 127.7 188.5 129.7 188.1L371.5 144.3C373.6 143.9 375 141.9 374.6 139.9L368.1 104.2C367.7 102.1 365.8 100.7 363.7 101.1Z" fill="#FF7058"/>
<path d="M276.1 93.1L201.1 106.7C198.6 107.1 197 109.5 197.4 112L200.8 130.6L284.8 115.4L281.4 96.8C281 94.3 278.6 92.7 276.1 93.1Z" fill="#324A5E"/>
<path d="M209.4 239.6H187.9V371.3H209.4V239.6Z" fill="#F1543F"/>
<path d="M263.3 239.6H241.8V371.3H263.3V239.6Z" fill="#F1543F"/>
<path d="M317.2 239.6H295.7V371.3H317.2V239.6Z" fill="#F1543F"/>
</g>
<defs>
<clipPath id="clip0_1_44">
<rect width="505" height="505" fill="white"/>
</clipPath>
</defs>
</svg>
