<svg width="505" height="505" viewBox="0 0 505 505" fill="none" xmlns="http://www.w3.org/2000/svg">
<g clip-path="url(#clip0_1_80)">
<path d="M252.5 505C391.952 505 505 391.952 505 252.5C505 113.048 391.952 0 252.5 0C113.048 0 0 113.048 0 252.5C0 391.952 113.048 505 252.5 505Z" fill="#F0C419"/>
<rect x="281.138" y="75.1627" width="211" height="292" rx="22" transform="rotate(45 281.138 75.1627)" fill="#9A6D83"/>
<path d="M265.581 90.719C274.173 82.1275 288.103 82.1275 296.694 90.719L414.781 208.806C423.373 217.397 423.373 231.327 414.781 239.919L288.916 365.784L139.716 216.584L265.581 90.719Z" fill="#339EBF"/>
</g>
<defs>
<clipPath id="clip0_1_80">
<rect width="505" height="505" fill="white"/>
</clipPath>
</defs>
</svg>
