<svg width="505" height="505" viewBox="0 0 505 505" fill="none" xmlns="http://www.w3.org/2000/svg">
<g clip-path="url(#clip0_1_23)">
<path d="M252.5 505C391.952 505 505 391.952 505 252.5C505 113.048 391.952 0 252.5 0C113.048 0 0 113.048 0 252.5C0 391.952 113.048 505 252.5 505Z" fill="#F0C419"/>
<path d="M406.1 171.1C409.1 167.7 409 162.5 405.8 159.3L354.1 107.6C350.9 104.4 345.7 104.2 342.3 107.3L164.2 266.8L246.7 349.3L406.1 171.1Z" fill="#FF7058"/>
<path d="M140.53 290.445L222.977 372.892L246.665 349.205L164.218 266.757L140.53 290.445Z" fill="white"/>
<path d="M140.6 290.4C140.6 290.4 148 319.4 127.6 349.4L164.1 385.9C194.1 365.4 223.1 372.9 223.1 372.9L140.6 290.4Z" fill="#E6E9EE"/>
<path d="M150 399.9L96.7 380.1L127.4 349.3L164 385.9L150 399.9Z" fill="#324A5E"/>
</g>
<defs>
<clipPath id="clip0_1_23">
<rect width="505" height="505" fill="white"/>
</clipPath>
</defs>
</svg>
